<?xml version="1.0" encoding="iso-8859-1"?>
<!-- Generator: Adobe Illustrator 19.0.0, SVG Export Plug-In . SVG Version: 6.00 Build 0)  -->
<svg version="1.1" id="Layer_1" xmlns="http://www.w3.org/2000/svg" xmlns:xlink="http://www.w3.org/1999/xlink" x="0px" y="0px"
	 viewBox="0 0 512 512" style="enable-background:new 0 0 512 512;" xml:space="preserve">
<polygon style="fill:#FBCFA3;" points="500.747,301.011 500.747,357.275 444.484,357.275 388.22,301.011 "/>
<rect x="11.253" y="301.011" style="fill:#FFE2C4;" width="433.231" height="56.264"/>
<polygon style="fill:#E0315B;" points="489.495,222.242 489.495,323.517 444.484,323.517 421.978,272.879 444.484,222.242 "/>
<polygon style="fill:#EA5A7D;" points="444.484,222.242 444.484,323.517 258.813,323.517 236.308,272.879 258.813,222.242 "/>
<path style="fill:#FFF296;" d="M180.044,165.978h-33.758l45.011,78.769h33.758v-33.758
	C225.055,186.233,204.8,165.978,180.044,165.978z"/>
<path style="fill:#FFF9CF;" d="M191.297,210.989v33.758H67.516v-33.758c0-24.756,20.255-45.011,45.011-45.011h33.758
	C171.042,165.978,191.297,186.233,191.297,210.989z"/>
<polygon style="fill:#FFF296;" points="67.516,222.242 101.275,272.879 67.516,323.517 11.253,323.517 11.253,222.242 "/>
<polygon style="fill:#FFF9CF;" points="258.813,323.517 225.055,323.517 202.549,272.879 225.055,222.242 258.813,222.242 "/>
<rect x="67.516" y="222.242" style="fill:#FFFFFF;" width="157.538" height="101.275"/>
<g>
	<path style="fill:#F7A676;" d="M16.879,75.956C7.562,75.956,0,83.518,0,92.835v343.209h33.758V92.835
		C33.758,83.518,26.196,75.956,16.879,75.956z"/>
	<path style="fill:#F7A676;" d="M495.121,165.978c-9.317,0-16.879,7.562-16.879,16.879v253.187H512V182.857
		C512,173.54,504.438,165.978,495.121,165.978z"/>
</g>
<g>
</g>
<g>
</g>
<g>
</g>
<g>
</g>
<g>
</g>
<g>
</g>
<g>
</g>
<g>
</g>
<g>
</g>
<g>
</g>
<g>
</g>
<g>
</g>
<g>
</g>
<g>
</g>
<g>
</g>
</svg>
