<?xml version="1.0" encoding="iso-8859-1"?>
<!-- Generator: Adobe Illustrator 19.0.0, SVG Export Plug-In . SVG Version: 6.00 Build 0)  -->
<svg version="1.1" id="Layer_1" xmlns="http://www.w3.org/2000/svg" xmlns:xlink="http://www.w3.org/1999/xlink" x="0px" y="0px"
	 viewBox="0 0 512 512" style="enable-background:new 0 0 512 512;" xml:space="preserve">
<polygon style="fill:#BDBDBD;" points="358.106,0 329.386,0 308.488,101.909 358.106,101.909 "/>
<rect x="300.66" style="fill:#E4E4E4;" width="28.721" height="101.909"/>
<polygon style="fill:#0096E7;" points="411.835,432.254 401.337,76.264 329.386,76.264 308.488,453.152 "/>
<polygon style="fill:#00CCFF;" points="329.386,76.264 257.433,76.264 246.936,432.254 329.386,453.152 "/>
<g>
	<polygon style="fill:#E96700;" points="191.958,31.347 118.083,31.347 138.349,0 191.958,0 	"/>
	<rect x="118.085" y="43.123" style="fill:#E96700;" width="73.874" height="31.347"/>
	<rect x="118.085" y="86.235" style="fill:#E96700;" width="73.874" height="31.347"/>
	<rect x="118.085" y="129.358" style="fill:#E96700;" width="73.874" height="31.347"/>
</g>
<polygon style="fill:#7C7C7C;" points="414.186,512 411.835,432.254 356.944,432.254 357.577,512 "/>
<polygon style="fill:#E4E4E4;" points="246.936,432.254 244.585,512 301.193,512 301.827,432.254 "/>
<polygon style="fill:#BDBDBD;" points="356.944,432.254 301.827,432.254 301.193,512 357.577,512 "/>
<polygon style="fill:#FF8E00;" points="138.349,0 118.083,0 107.634,238.001 118.083,512 138.349,512 "/>
<g>
	<rect x="97.814" style="fill:#FFBA00;" width="20.266" height="512"/>
	<path style="fill:#FFBA00;" d="M329.386,194.202l-20.898,43.8l20.898,43.8c24.189,0,43.8-19.61,43.8-43.8
		S353.575,194.202,329.386,194.202z"/>
</g>
<path style="fill:#FDE09C;" d="M285.586,238.001c0,24.189,19.61,43.8,43.8,43.8v-87.599
	C305.195,194.202,285.586,213.811,285.586,238.001z"/>
<g>
</g>
<g>
</g>
<g>
</g>
<g>
</g>
<g>
</g>
<g>
</g>
<g>
</g>
<g>
</g>
<g>
</g>
<g>
</g>
<g>
</g>
<g>
</g>
<g>
</g>
<g>
</g>
<g>
</g>
</svg>
